<svg width="720" height="1120" viewBox="0 0 720 1120" fill="none" xmlns="http://www.w3.org/2000/svg">
  <defs>
    <linearGradient id="bg" x1="0" y1="0" x2="1" y2="1">
      <stop offset="0%" stop-color="#0d1335"/>
      <stop offset="100%" stop-color="#161f45"/>
    </linearGradient>
  </defs>
  <rect width="720" height="1120" rx="36" fill="url(#bg)"/>
  <rect x="26" y="26" width="668" height="1068" rx="32" stroke="#E9D6A3" stroke-width="6" fill="none"/>
  <rect x="46" y="46" width="628" height="1028" rx="28" stroke="#E9D6A3" stroke-width="3" fill="none" opacity="0.6"/>
  <circle cx="92" cy="88" r="12" fill="#E9D6A3"/>
  <circle cx="628" cy="88" r="12" fill="#E9D6A3"/>
  <g transform="translate(225 340)" fill="#E9D6A3">
    <path d="M135.5 0c-22.4 0-41 17.4-41 38.9v17.6c-9.7-5.5-21.2-8.7-33.6-8.7-36.7 0-66.4 27.5-66.4 61.4v26.1c0 50.8 50 92.7 111.7 92.7 61.7 0 111.7-41.9 111.7-92.7V109c0-33.9-29.7-61.4-66.4-61.4-12.2 0-23.7 3.1-33.4 8.5V38.9C118.1 17.4 100.6 0 78.1 0c-12 0-23.1 5.1-31 13.2C58 6.4 73.8 2 89.9 2c13.2 0 26 2.4 38 7.1C134.5 3.8 145.3 0 156.9 0c24.8 0 45 19.7 45 43.9v30.3c0 15.2-4.9 30.4-13.9 43.2a10 10 0 1 1-16.3-11.8c6.6-9.2 10.2-20.2 10.2-31.4V43.9C181.9 28.9 170 17 155 17c-14 0-25.9 11.8-25.9 26.9v25.8a10 10 0 0 1-14.9 8.6c-10.3-5.8-22.3-8.9-34.7-8.9-24.6 0-44.6 16.6-44.6 37v26.1c0 39.7 39.5 72 88.7 72 49.2 0 88.7-32.3 88.7-72V107c0-20.4-20-37-44.6-37-12.3 0-24 3.2-34.1 9.2a10 10 0 0 1-15-8.5V43.9C108.7 28.9 96.9 17 82.2 17 67.6 17 55.7 28.9 55.7 43.9v25.8a10 10 0 0 1-14.8 8.6C30.9 72.5 19.1 69.1 7.5 69.1 19.7 37.2 50.6 14 86.9 14c13.2 0 26 2.1 38 6.3C136.1 14.5 147 12 158.5 12c33.1 0 60 26.7 60 59.6v30.3c0 57-54.8 103.7-122.4 103.7-67.6 0-122.4-46.7-122.4-103.7V109c0-32.9 26.9-59.6 60-59.6 13.7 0 26.7 3.6 38.2 10.3V38.9C71.9 17.4 90.5 0 112.9 0Z"/>
  </g>
  <path d="M474 561c0 78.1-60.5 141.5-135.2 141.5-9.5 0-18.7-1.1-27.5-3.3 58.2-13.9 101.8-69.3 101.8-138.2 0-62.4-37.6-115.2-89.6-134 8.4-2.4 17.3-3.7 26.4-3.7C413.5 423.3 474 482.9 474 561Z" fill="#E9D6A3"/>
  <text x="360" y="990" text-anchor="middle" fill="#E9D6A3" font-family="'Poppins', 'Inter', sans-serif" font-size="54" letter-spacing="4">MEOWTAROT</text>
</svg>
